<svg width="256" height="256" viewBox="0 0 256 256" fill="none" xmlns="http://www.w3.org/2000/svg">
<path fill-rule="evenodd" clip-rule="evenodd" d="M143.636 130.875C141.561 133.439 140.428 136.637 140.428 139.936V190.548C140.428 196.634 144.254 202.063 149.985 204.109L186.108 217.01C189.913 218.368 188.938 224 184.898 224H71.3342C67.2794 224 66.3195 218.337 70.1477 217.001L107.203 204.066C112.984 202.048 116.857 196.594 116.857 190.471V139.521C116.857 136.167 115.686 132.918 113.547 130.335L41.8653 43.7928C37.9778 39.0993 41.3159 32 47.4103 32H208.59C214.647 32 217.997 39.0229 214.186 43.7304L143.636 130.875ZM143.172 74.836C134.962 74.836 128.307 81.4927 128.307 89.7019C128.307 97.9121 134.962 104.568 143.172 104.568C151.381 104.568 158.037 97.9121 158.037 89.7019C158.037 81.4927 151.381 74.8361 143.172 74.836Z" fill="#17B2E7"/>
</svg>
